<svg class="Logo__image Logo__image--desktop" xmlns="http://www.w3.org/2000/svg" width="480" height="74.193" viewBox="0 0 480 74.193"><g id="LOGO_SLOGAN_RU" transform="translate(-64 -39)"><g id="Group_10138" transform="translate(64 39)"><path id="Path_3712" d="M191.1 12.812a6.921 6.921 0 0 1 7.6 6.562v.863c0 4.49-2.936 7.08-7.6 7.08h-9.325v7.253H177.8V12.812zm.173 10.706a3.251 3.251 0 0 0 3.454-2.936v-.518a3.483 3.483 0 0 0-3.108-3.8H181.6v7.253z" transform="translate(124.978 8.788)"></path><path id="Path_3713" d="M203.806 35.194c-6.907 0-12.606-4.662-12.606-11.4s5.7-11.4 12.606-11.4 12.606 4.662 12.606 11.4-5.7 11.4-12.606 11.4m0-19.168a7.908 7.908 0 0 0-8.461 7.253v.521c0 4.49 3.281 7.771 8.461 7.771s8.461-3.281 8.461-7.771-3.281-7.771-8.461-7.771" transform="translate(134.354 8.515)"></path><path id="Path_3714" d="M220.706 35.2c-7.253 0-12.606-4.662-12.606-11.4s5.526-11.4 12.606-11.4a15.207 15.207 0 0 1 10.015 3.281l-2.072 3.119a12.928 12.928 0 0 0-7.771-2.763c-5.353 0-8.634 3.281-8.634 7.6s3.281 7.771 8.634 7.771a12.884 12.884 0 0 0 7.943-2.59l2.072 3.108a17.438 17.438 0 0 1-10.187 3.274" transform="translate(146.256 8.508)"></path><path id="Path_3715" d="M244.134 29.1l-2.418 5.18H237.4l10.533-21.58h4.144l10.533 21.585h-4.317l-2.418-5.18zm1.727-3.454h8.289l-4.144-8.807z" transform="translate(166.103 8.733)"></path><path id="Path_3716" d="M271.831 34.385V25.06h-14.16v9.325H253.7V12.8h3.972v8.807h14.16V12.8h3.968v21.585z" transform="translate(177.95 8.801)"></path><path id="Path_3717" d="M270 34.385V12.8h3.972v10.015L284.851 12.8h4.835l-11.052 10.361L290.2 34.385h-5.353l-10.875-10.533v10.533z" transform="translate(189.796 8.801)"></path><path id="Path_3718" d="M237.269 20.643h-9.325v-4.49h15.369V12.7H223.8v21.585h13.3c4.662 0 7.943-2.59 7.943-6.907s-2.936-6.735-7.771-6.735m.345 10.015h-9.67V24.27h9.67c2.418 0 3.972 1.381 3.972 3.281s-1.209 3.281-3.972 3.108" transform="translate(157.308 8.733)"></path><rect id="Rectangle_2047" width="43.343" height="22.103" transform="translate(245.556 11.052)" fill="#e9041e"></rect><rect id="Rectangle_2048" width="43.343" height="21.585" transform="translate(245.556 32.064)"></rect><rect id="Rectangle_2049" width="28.147" height="2.59" transform="translate(252.997 30.9)" fill="#fff"></rect><path id="Path_3738" d="M0 0h23.312v6.044H7.771v4.49h7.253a11.446 11.446 0 0 1 7.771 2.245 7.294 7.294 0 0 1 2.763 6.216 7.572 7.572 0 0 1-3.108 6.562 13.481 13.481 0 0 1-8.461 2.418H0zm13.469 22.448a5.328 5.328 0 0 0 3.108-.863 2.784 2.784 0 0 0 1.036-2.245c0-1.9-1.381-2.936-4.144-2.936h-5.7v6.044z"></path><path id="Path_3739" d="M44.283 0l-11.57 21.585a14.927 14.927 0 0 1-4.49 5.353 10.167 10.167 0 0 1-5.871 1.727 12.387 12.387 0 0 1-5.008-1.036l1.9-5.871a7.821 7.821 0 0 0 2.763.518 4.6 4.6 0 0 0 2.072-.518 5.488 5.488 0 0 0 1.727-1.727L15.1 0h8.289l6.562 13.469L36.685 0z" transform="translate(10.975)"></path><path id="Path_3740" d="M62.564 21.758v11.915h-7.253v-5.7H37.353v5.7H30.1V21.758h1.036c1.727 0 2.763-1.209 3.454-3.454a36.214 36.214 0 0 0 1.21-9.67L36.144 0h22.621v21.758zm-20.549-4.835a12.532 12.532 0 0 1-1.727 4.835h10.534V6.389h-7.944V9.5a54.36 54.36 0 0 1-.863 7.423z" transform="translate(21.877)"></path><path id="Path_3741" d="M78.383 0l-11.57 21.585a14.927 14.927 0 0 1-4.49 5.353 10.167 10.167 0 0 1-5.871 1.727 12.387 12.387 0 0 1-5.008-1.036l1.9-5.871a7.821 7.821 0 0 0 2.763.518 4.6 4.6 0 0 0 2.072-.518 5.488 5.488 0 0 0 1.727-1.727L49.2 0h8.289l6.561 13.469L70.785 0z" transform="translate(34.562)"></path><path id="Path_3742" d="M104.79 21.758V0h-7.944v21.758h-7.08V0h-7.943v21.758h-7.252V0H66.8v27.974h34.363v5.7h7.253V21.758z" transform="translate(46.88)"></path><path id="Path_3743" d="M115.148 21.93v6.044H92.7V0h21.93v6.044h-14.16v4.662h12.43v5.871h-12.429v5.18z" transform="translate(65.153)"></path><path id="Path_3744" d="M130.121 21.93v6.044H107.5V0h21.93v6.044h-14.16v4.662h12.43v5.871h-12.429v5.18z" transform="translate(75.554)"></path><path id="Path_3745" d="M123.3 6.7h20.031v4.49H123.3z" transform="translate(86.675 4.67)"></path><path id="Path_3746" d="M62.658 22.8a12.485 12.485 0 0 1 5.18 5.18 15.494 15.494 0 0 1 0 15.023 12.485 12.485 0 0 1-5.18 5.18 16.508 16.508 0 0 1-7.6 1.9 18.949 18.949 0 0 1-6.905-1.383 13.056 13.056 0 0 1-5.18-3.972l5.008-4.49a8.509 8.509 0 0 0 6.735 3.281 7.556 7.556 0 0 0 4.317-1.381 6.9 6.9 0 0 0 2.418-3.8h-10.19V32.47h10.016a6.483 6.483 0 0 0-2.418-3.626 7.556 7.556 0 0 0-4.317-1.381 8.766 8.766 0 0 0-6.735 3.281L42.8 26.253a13.056 13.056 0 0 1 5.18-3.972 18.949 18.949 0 0 1 6.908-1.381 16.17 16.17 0 0 1 7.77 1.9z" transform="translate(30.071 13.965)"></path><path id="Path_3747" d="M83.539 27.516H74.9v21.758h-7.766V27.516H58.5V21.3h25.039z" transform="translate(41.108 14.256)"></path><path id="Path_3748" d="M80.631 48.2a14.275 14.275 0 0 1-6.044-19.34 14.566 14.566 0 0 1 6.044-6.044 17.211 17.211 0 0 1 15.887 0 14.275 14.275 0 0 1 6.044 19.34 14.566 14.566 0 0 1-6.045 6.044 18.306 18.306 0 0 1-15.886 0zm11.742-5.7a8.446 8.446 0 0 0 2.763-2.763 8.807 8.807 0 0 0 0-8.289 6.111 6.111 0 0 0-2.763-2.763 7.481 7.481 0 0 0-7.6 0 8.445 8.445 0 0 0-2.763 2.763 8.807 8.807 0 0 0 0 8.289 7.084 7.084 0 0 0 2.765 2.763 7.481 7.481 0 0 0 7.598 0z" transform="translate(51.241 13.947)"></path><path id="Path_3749" d="M121.875 37.1a7.026 7.026 0 0 1 1.381 4.144 7.279 7.279 0 0 1-2.936 5.871 13.977 13.977 0 0 1-8.289 2.245H97.7V21.211h13.642a13.369 13.369 0 0 1 7.771 1.9 5.926 5.926 0 0 1 2.763 5.526 6.8 6.8 0 0 1-1.036 3.626 7.392 7.392 0 0 1-2.763 2.418 6.9 6.9 0 0 1 3.798 2.419zm-16.4-4.662h5.008c2.245 0 3.281-.863 3.281-2.763s-1.209-2.763-3.281-2.763h-5.008zm9.67 8.289c0-1.9-1.209-2.763-3.454-2.763h-6.216v5.7h6.216c2.245 0 3.454-1.036 3.454-2.936z" transform="translate(68.651 14.172)"></path><path id="Path_3750" d="M136.376 32.424a8.639 8.639 0 0 1 2.763 6.907 9.435 9.435 0 0 1-3.108 7.425 12.815 12.815 0 0 1-8.634 2.59H114.1V21.2h7.771v8.979h6.562a13.264 13.264 0 0 1 7.943 2.245zm-6.389 10.016a4.161 4.161 0 0 0 1.209-3.108c0-2.418-1.381-3.626-4.317-3.626h-4.835v7.771h5.008a4.689 4.689 0 0 0 2.935-1.037zm12.26-21.24h7.771v28.147h-7.771z" transform="translate(80.112 14.183)"></path><path id="title" d="M153.285 7.367c-2.1 0-3.511-1.217-3.511-3.029V.217h1.293V4.2c0 1.254.808 1.973 2.218 1.973s2.23-.719 2.23-1.973V.217h1.285v4.121c0 1.84-1.378 3.029-3.515 3.029zm-9.047 0a3.8 3.8 0 0 1-4.063-3.682 4.076 4.076 0 0 1 8.111 0 3.5 3.5 0 0 1-1.186 2.664 4.307 4.307 0 0 1-2.861 1.014zm0-6.171a2.5 2.5 0 1 0 0 4.987 2.5 2.5 0 1 0 0-4.987zM127.13 7.351a4.386 4.386 0 0 1-2.92-1.014 3.447 3.447 0 0 1-1.169-2.667c0-2.123 1.72-3.664 4.089-3.664a5.261 5.261 0 0 1 3.251 1.028l-.692 1.017a3.981 3.981 0 0 0-2.522-.825h-.085a2.459 2.459 0 0 0-2.682 2.445 2.5 2.5 0 0 0 2.782 2.462 4.793 4.793 0 0 0 1.994-.413V3.7h1.252v2.7a6.148 6.148 0 0 1-3.298.951zM12.193 7.336a4.337 4.337 0 0 1-2.86-1.007 3.471 3.471 0 0 1-1.2-2.658A3.794 3.794 0 0 1 12.193 0a3.781 3.781 0 0 1 4.035 3.671 3.736 3.736 0 0 1-4.035 3.665zm0-6.152a2.5 2.5 0 1 0 0 4.982 2.5 2.5 0 1 0 0-4.982zm46.835 6.148a4.38 4.38 0 0 1-2.913-1.01 3.443 3.443 0 0 1-1.167-2.66C54.948 1.54 56.664 0 59.028 0a5.2 5.2 0 0 1 3.241 1.028l-.686 1.017a3.9 3.9 0 0 0-2.515-.824h-.085a2.453 2.453 0 0 0-2.67 2.442 2.49 2.49 0 0 0 2.776 2.457 4.965 4.965 0 0 0 1.986-.411V3.69h1.252v2.689a6.044 6.044 0 0 1-3.299.953zm-37.517 0a4.375 4.375 0 0 1-2.911-1.01 3.443 3.443 0 0 1-1.167-2.66C17.431 1.54 19.147 0 21.511 0a5.139 5.139 0 0 1 3.238 1.038l-.684 1.016a4 4 0 0 0-2.517-.85 2.506 2.506 0 0 0-2.756 2.458 2.492 2.492 0 0 0 2.774 2.465 4.06 4.06 0 0 0 2.55-.836l.691 1.021a5.31 5.31 0 0 1-3.296 1.02zM3.626 7.3A6.974 6.974 0 0 1 0 6.374l.5-1.091a6.443 6.443 0 0 0 3.138.844c1.3 0 2.075-.361 2.075-.965 0-.638-1-.8-2.159-.992-1.589-.259-3.39-.554-3.39-2.127 0-1.231 1.217-2 3.175-2a7.071 7.071 0 0 1 3.24.766l-.511 1.043a7.225 7.225 0 0 0-2.7-.63c-1.22 0-1.864.26-1.864.751 0 .555.923.7 1.991.878 1.586.257 3.56.578 3.56 2.313C7.053 6.484 5.74 7.3 3.626 7.3zm129.847-.136h-1.293V.217h4.488a2.173 2.173 0 0 1 2.409 2.217 2.149 2.149 0 0 1-2.005 2.136l2.08 2.595h-1.62l-1.976-2.559h-2.082v2.561zm0-5.8v2.089h3.055c.78 0 1.265-.391 1.265-1.02a1.008 1.008 0 0 0-1.125-1.066zm26.427 5.8h-1.292V.217h4.325a2.3 2.3 0 0 1 2.486 2.364 2.184 2.184 0 0 1-2.486 2.253H159.9v2.332zm0-5.8v2.318h3.109a1.041 1.041 0 0 0 1.091-1.087 1.135 1.135 0 0 0-1.165-1.23H159.9zM97.632 7.15h-1.4L99.625.215h1.357l3.4 6.931h-1.39l-.8-1.688h-3.761l-.8 1.688zm2.682-5.624l-1.349 2.812h2.682zM90.142 7.149h-1.294V.215h4.479a2.165 2.165 0 0 1 2.4 2.209 2.138 2.138 0 0 1-1.994 2.134L95.8 7.145h-1.618l-1.961-2.552h-2.079v2.555zm0-5.787v2.081h3.046c.778 0 1.261-.39 1.261-1.019a1 1 0 0 0-1.123-1.062h-3.184zM73.28 7.149h-1.265V.215h1.319L77.87 5.44l.03-.012a58.041 58.041 0 0 1-.081-3.4V.215h1.256v6.931h-1.3l-4.52-5.223-.022.008c.05 1.028.05 2.818.05 3.406v1.811zm45.538 0h-6.558V.215h6.335v1.147h-5.045v1.679h3.921V4.19h-3.921V6h5.268v1.146zm-7.574 0h-5.937V.215h1.293V6h4.648v1.146zm-23.757 0h-6.562V.215h6.338v1.147h-5.05v1.679h3.926V4.19h-3.926V6h5.273v1.146zm-16.852 0h-6.563V.215h6.342v1.147h-5.053v1.679h3.93V4.19h-3.93V6h5.273v1.146zm-19.62 0h-6.563V.215h6.339v1.147h-5.047v1.679h3.924V4.19h-3.924V6h5.27v1.146zm-11.73 0v-5.8h-2.84V.215H43.4v1.134h-2.828v5.8h-1.288zm-3.418 0h-6.561V.215h6.34v1.147H30.6v1.679h3.928V4.19H30.6V6h5.272v1.146zm-9.686 0V.217h1.29v6.929h-1.29z" transform="translate(245.56 66.826)"></path></g></g></svg>